<?xml version="1.0" encoding="utf-8"?>
<!-- Generator: Adobe Illustrator 21.1.0, SVG Export Plug-In . SVG Version: 6.00 Build 0)  -->
<svg version="1.1" id="Capa_1" xmlns="http://www.w3.org/2000/svg" xmlns:xlink="http://www.w3.org/1999/xlink" x="0px" y="0px"
	 viewBox="0 0 512 512" style="enable-background:new 0 0 512 512;" xml:space="preserve">
<style type="text/css">
	.st0{fill:#131414;}
	.st1{fill:#FFFFFF;}
</style>
<g transform="matrix(1.25 0 0 -1.25 0 45)">
	<g>
		<g>
			<path class="st0" d="M409.6-328.1c0-25.1-20.4-45.5-45.5-45.5H45.5C20.4-373.6,0-353.2,0-328.1V-9.5C0,15.6,20.4,36,45.5,36
				h318.6c25.1,0,45.5-20.4,45.5-45.5V-328.1z"/>
			<path class="st1" d="M139-73.5c0,17.6,8.8,30.7,27.5,30.7H254c16.9,0,25.1-12,25.1-24.3c0-12-8.5-24.3-25.1-24.3h-62.1V-143h57.9
				c17.3,0,25.8-12,25.8-24.3c0-12-8.8-24.3-25.8-24.3h-57.9v-53.6h65.3c16.9,0,25-12,25-24.3c0-12-8.5-24.3-25-24.3h-91
				c-15.5,0-27.2,10.6-27.2,26.5L139-73.5L139-73.5z"/>
		</g>
	</g>
</g>
</svg>
