<?xml version="1.0" encoding="utf-8"?>
<!-- Generator: Adobe Illustrator 21.1.0, SVG Export Plug-In . SVG Version: 6.00 Build 0)  -->
<svg version="1.1" id="Capa_1" xmlns="http://www.w3.org/2000/svg" xmlns:xlink="http://www.w3.org/1999/xlink" x="0px" y="0px"
	 viewBox="0 0 512 512" style="enable-background:new 0 0 512 512;" xml:space="preserve">
<g>
	<g>
		<path d="M363.9,14.5c-0.2-8.9-8.3-15.7-17.2-14.3c-58.3,8.9-100.4,65.2-98.6,114.7c0.3,7.9,6.9,14.3,14.8,14.3c0.1,0,0.3,0,0.4,0
			C317.8,127.6,365.1,70.9,363.9,14.5z M263.1,114.1c-0.9-25.3,12.4-50,25.2-64.8c14.7-17.2,39.1-31,60.6-34.4
			C349.8,62.7,309.7,112.6,263.1,114.1z"/>
	</g>
</g>
<path d="M457.1,362.6c-3.3-1.7-6.5-3.5-9.6-5.5c-4.2-2.7-8.2-5.6-11.9-8.9c-4.5-3.8-8.7-8-12.5-12.6c-4.3-5.2-8.1-10.7-11.3-16.7
	c-6.1-11.5-11.9-26.1-12.6-39.2c-0.8-15.1,1.9-30.4,7.3-44.5c2.6-6.8,6-13.3,10-19.4c3.5-5.3,7.4-10.2,11.8-14.8
	c3.5-3.7,7.2-7.1,11.1-10.3c1.7-1.4,3.4-2.7,5.2-4c6.7-4.8,8.4-14.5,3.1-21.3c-22.6-28.8-54.8-43.1-91.8-45.9
	c-42.6-3.2-78.9,22.9-95.7,22.9c-4.1,0-8.1-1.1-12-2.3c-5.1-1.6-10.1-3.6-15.1-5.6c-11.7-4.6-23.6-9.5-36-11.7
	c-6.6-1.2-13.3-1.7-19.9-1.7c-6.4,0-13.2,0-19.5,1.4c-0.8,0.2-1.5,0.3-2.3,0.6c-4.8,1.4-9.8,2.6-14.7,4.2
	c-9.8,3.3-19.2,7.7-27.9,13.3c-8.8,5.6-16.9,12.2-24.1,19.7c-7.4,7.7-13.9,16.2-19.3,25.4c-0.3,0.5-0.6,0.9-0.8,1.4
	c-45.3,78.6-12.6,194.4,31.9,258.8c18.3,26.5,45.8,66.2,83,66.2c33.6,0,46.2-20.4,83.2-20.4c36.2,0,46.8,20.4,82.3,19.8
	c38.7-0.7,62.8-36.1,82.2-64.4c18.3-26.8,28.7-53,33.3-66.2C466.9,373.7,463.7,365.9,457.1,362.6z"/>
<g>
	<path d="M357.6,22.6C355.9,11.7,341.7,4.8,331.7,8c-7.2,2.3-11.7,7-13.7,12.9c-1.7,0.7-3.2,1.4-3.4,1.4
		c-6.2,2.9-10.8,7.3-14.7,12.8c-0.4,0.5-1,2-1.7,3.2c-0.1,0.1-0.4,0.4-1,1.1c-0.3,0.3-0.7,0.6-1,1c-0.2,0.1-0.4,0.3-0.6,0.4
		c-0.8,0.6-1.7,1.1-2.5,1.7c-2.8,1.9-5.4,3.8-8,5.9c-6.8,5.5-11.6,12.9-15.4,20.7c-1.6,3.2-3.1,6.5-5,9.5c-0.2,0.3-0.4,0.7-0.7,1
		c-0.2,0.2-0.4,0.4-0.6,0.6c0,0,0,0,0,0c-8.9,5.5-12.7,16.5-8.6,26.2c4,9.5,14.6,15,24.8,12.2c13.2-3.6,22.5-12.9,31.5-22.6
		c1.9-2,3.8-4.1,5.7-6.1c5.9-0.9,11.2-4.6,15.4-10c4.9-6.4,8.3-13.8,10.8-21.5c0.4-1.2,0.6-2.3,0.8-3.4c2.3-1.5,4.5-3.2,6.3-5.2
		C357.4,42.1,359.2,32.9,357.6,22.6z"/>
	<path d="M314.6,22.3c0,0,0.1,0,0.1-0.1C314.6,22.3,314.6,22.3,314.6,22.3z"/>
</g>
</svg>
