<?xml version="1.0" encoding="utf-8"?>
<!-- Generator: Adobe Illustrator 21.1.0, SVG Export Plug-In . SVG Version: 6.00 Build 0)  -->
<svg version="1.1" id="Layer_1" xmlns="http://www.w3.org/2000/svg" xmlns:xlink="http://www.w3.org/1999/xlink" x="0px" y="0px"
	 viewBox="0 0 512 512" style="enable-background:new 0 0 512 512;" xml:space="preserve">
<g>
	<g>
		<path d="M507.5,208.2c-0.9-4.8-5.1-8.2-10-8.2H261.4c-5.6,0-10.1,4.5-10.1,10.1v97.3c0,5.6,4.5,10.1,10.1,10.1h116
			c-11.8,23.1-30.1,42.7-52.7,56C304,385.6,280.2,392,256,392c-56.4,0-107.6-35.5-127.4-88.3c-5.7-15.2-8.6-31.3-8.6-47.7
			c0-15.1,2.5-30,7.3-44.2C146.2,156.9,197.9,120,256,120c25.5,0,50.4,7.1,71.9,20.6c3.7,2.3,8.4,2,11.8-0.8l79.6-65.2
			c2.3-1.9,3.7-4.8,3.7-7.8c0-3-1.3-5.9-3.7-7.8C373.6,20.9,315.6,0,256,0C114.8,0,0,114.8,0,256c0,42.3,10.6,84.3,30.5,121.3
			C75.3,460.4,161.7,512,256,512c59,0,116.6-20.6,162.1-57.9c44.9-36.8,76.3-88.2,88.3-144.7C510.1,292,512,274,512,256
			C512,239.9,510.5,223.8,507.5,208.2z M256,20.3c50.7,0,100.3,16.5,140.8,46.6l-64.4,52.7c-23.2-13-49.5-19.9-76.4-19.9
			c-61.9,0-117.5,36.5-142.6,92.2l-62.8-51.5C91.1,68.8,168,20.3,256,20.3z M20.3,256c0-34.6,7.5-67.5,20.9-97.1L106,212
			c-4.2,14.3-6.3,29-6.3,44c0,16.4,2.5,32.5,7.5,47.9l-64.4,52.7C28,325.4,20.3,290.8,20.3,256z M256,491.7
			c-84.1,0-161.3-44.5-203.6-116.8l62.7-51.3c11.5,24,28.9,44.6,50.9,60.1c26.4,18.6,57.5,28.5,90,28.5c25.4,0,50.4-6.2,72.7-17.9
			l64.9,53.1C353.7,476.1,305.4,491.7,256,491.7z M486.6,305.2c-10.6,50.1-37.8,95.8-76.7,129.4L347,383.1
			c25.1-18,44.6-43.2,55.4-72.2c1.2-3.1,0.7-6.6-1.2-9.3c-1.9-2.7-5-4.4-8.3-4.4H271.5v-77H489c1.8,11.8,2.7,23.8,2.7,35.8
			C491.7,272.6,490,289.2,486.6,305.2z"/>
	</g>
</g>
<g>
	<path d="M140.3,159.7c-0.3,0.3-0.5,0.7-0.8,1C139.7,160.4,140,160.1,140.3,159.7z"/>
	<g>
		<path d="M31.7,189.1C31.7,189.1,31.7,189.1,31.7,189.1C31.7,189.1,31.7,189.1,31.7,189.1z"/>
		<g>
			<path d="M498.5,256.1c-0.2-2.2-0.6-4.5-1.3-6.6c3.1-4.2,5-9.3,4.7-14.7c-0.6-13.7-11.2-25.6-25.5-25.5
				c-32.2,0.2-64.5,0.4-96.7,0.7c-15.8,0.1-31.6,0.2-47.4,0.3c-3.6,0-7.3,0.1-10.9,0c-1.8-0.1-3.6-0.2-5.4-0.3c-0.5,0-0.9,0-1.1,0
				c-1.7-0.3-3.8-0.8-5.4-1.3c0.3,0.1,0.5,0.2,0.8,0.3c-0.3-0.1-0.6-0.2-0.8-0.3c-1.3-0.4-2.2-0.7-2.3-1c-1.5-0.6-2.9-1.2-4.4-1.8
				c-3.5-1.2-7.3-2-11-2.1c-14.8-0.4-27.5,9.4-31.2,23.7c-2.2,8.3-1.8,18-2.4,26.6c-0.6,8.6-2.3,18.1-0.3,26.6
				c3.7,15.3,17,23,32.1,22.8c31.6-0.5,63.1-1.4,94.7-2.8c5.3-0.2,10.6-0.5,15.9-0.8c-0.5,1.2-1.1,2.3-1.6,3.5
				c-1,2.4-2.1,4.7-3.1,7.1c-1.2,2.8-2.4,5.6-3.6,8.5c0,0.1-0.1,0.3-0.2,0.4c-0.3,0.8-0.8,1.8-0.9,2.2c-0.5,1.1-0.9,2.1-1.4,3.2
				c-1.1,2.5-2.3,5.1-3.5,7.6c-2,4.1-4.2,8.1-6.6,12c-1.2,1.9-2.5,3.6-3.7,5.5c-0.5,0.5-0.9,1.1-1.4,1.6c-1.6,1.9-3.4,3.7-5.2,5.4
				c-0.5,0.4-1,0.8-1.4,1.3c-1.8,1.1-3.5,2.3-5.4,3.3c-0.9,0.4-1.8,0.8-2.7,1.3c0.8-0.4,1.4-0.8,1.8-1c-0.4,0.2-0.9,0.4-1.3,0.5
				c-10.3,3.3-19.2,13.2-18.7,24.6c0.1,1.8,0.3,3.6,0.7,5.3c-1.2,0.1-2.3,0.3-3.5,0.6c-8.2,2-16.5,3.5-24.8,4.9
				c-0.6,0.1-1.3,0.2-1.9,0.2c-1.9,0.2-3.8,0.4-5.6,0.6c-4.7,0.4-9.4,0.7-14.2,0.9c-8.5,0.3-17,0.3-25.5-0.2
				c-4.1-0.2-8.2-0.6-12.3-1c-1.6-0.2-3.2-0.4-4.8-0.5c-1.1-0.2-2.3-0.3-3.4-0.5c-16.1-2.6-31.9-6.7-47.2-12.2
				c-3.4-1.2-6.7-2.6-10.1-3.9c-0.1,0-0.2-0.1-0.3-0.1c-2.1-0.9-4.1-1.8-6.2-2.8c-6.9-3.2-13.7-6.8-20.2-10.6
				c-7.3-4.2-14.5-8.8-21.3-13.7c-1.8-1.3-3.6-2.7-5.5-4c-0.6-0.5-1.3-1-1.5-1.2c-3.1-2.5-6.1-5.1-9.1-7.7c-0.5-1-0.9-2.1-1.4-3.1
				c-0.4-1-0.8-2-1.2-3c-2-5.1-4-10.2-5.7-15.4c-3.4-10.1-6-20.3-7.8-30.8c0-0.3-0.1-0.5-0.1-0.7c0-0.7,0-1.3-0.1-1.5
				c-0.2-2.4-0.4-4.8-0.5-7.2c-0.2-5.5,0-11,0.3-16.5c0.6-10.7,1.8-21.4,1.8-32.1c0-6.8-0.7-13.5-1.7-20.3c0,0,0,0,0,0
				c8.6-16.9,18.5-33,29.9-48.2c0.2-0.3,0.4-0.6,0.7-0.9c-0.4,0.5-0.5,0.6,0.6-0.8c0.2-0.2,0.4-0.5,0.6-0.7c0.1-0.1,0.2-0.2,0.2-0.4
				c-0.1,0.1-0.1,0.2-0.2,0.3c1.2-1.5,2.4-3,3.7-4.5c3.1-3.8,6.3-7.4,9.5-11c4.7-5.2,9.6-10.3,14.6-15.2c0.2-0.1,0.3-0.2,0.5-0.3
				c3-2,6.1-3.8,9.3-5.5c1.5-0.8,3-1.5,4.5-2.3c0.5-0.2,2.3-1.1,3.5-1.6c0.9-0.4,1.9-0.8,2.3-0.9c1.9-0.7,3.7-1.3,5.6-2
				c7.3-2.4,14.8-4.2,22.4-5.5c1.8-0.3,3.7-0.6,5.5-0.9c0.1,0,0.3,0,0.4,0c4-0.4,8-0.8,12.1-1.1c7.6-0.5,15.1-0.7,22.7-0.8
				c15.7-0.1,31.4,0.9,47.2,0.9c0.1,0,0.2,0,0.3,0c1.3,1.9,2.8,3.7,4.5,5.1c7.7,13.9,29.2,19,40.5,6c2.9-3.3,5.9-6.5,9.1-9.6
				c1.6-1.5,3.3-3,5-4.4c0.1-0.1,0.3-0.2,0.4-0.3c0.1-0.1,0.5-0.5,1.6-1.3c0,0,0,0,0.1,0c0.2-0.1,0.3-0.3,0.5-0.4
				c-0.1,0.1-0.2,0.3-0.4,0.4c2.1-1.5,4.2-2.9,6.3-4.2c5.7-3,11.5-6,17.2-9c11.8-6.2,16.4-23.7,9.1-34.9
				c-3.5-5.4-8.7-10.2-15.2-11.7c-3.1-0.7-5.9-0.8-8.7-0.6c-3.2-5.7-8.6-9.8-15.3-12.2c-33.1-12-69.1-14.2-104-15.5
				c-16.4-0.6-32.9-1.4-49.3-0.2c-20.1,1.4-38.8,5.5-57.1,13.7c-15.6,7-29.4,17.4-42.7,28.1c-11.7,9.6-23.1,19.8-33.1,31.2
				c-12,13.7-21.5,28.2-28.4,45.1c-2.8,6.9-4.4,14.2-4,21.6c-5.2,3.5-9.8,8.6-11.2,14.9c-0.2,0.8-0.3,1.5-0.4,2.3
				c-9,4-16.1,12.6-15.3,23c3.2,43.7,7.1,87.3,11.7,130.9c0.3,2.7,0.9,5.5,1.8,8.1c-1.9,3.5-2.9,7.4-2.7,11.6
				c0.5,12.3,9,22.8,20.8,25.1c4.9,8.5,10.9,16.3,18.1,23c0.1,0.1,0.1,0.1,0.2,0.2c10.1,30,38.3,52.2,66,65.3
				c3.7,1.7,7.4,3.4,11.1,4.9c2,3.3,4.8,6,8.6,7.6c37.1,16.1,76.8,25,117.1,24.4c6.6,0.1,13.2-0.2,19.7-1c6.2-0.8,11.4-1.9,16.1-5.7
				c1.2,2.6,3.6,4.6,7.4,4.6c6.2,0,8.9-5.4,8.1-10.2c24.4-4.5,47.9-13.2,69.9-24.6c6.6-3.4,10.9-10.4,12.2-17.8
				c5.2-2.1,10.2-5.1,14.6-7.9c7.7-5,15.1-11,21.2-17.9c6.4-7.4,12.1-15.4,16.2-24.3c0.4-0.9,0.8-1.8,1.2-2.7
				c10.6-10.6,21.1-21.2,31.5-32c8-8.4,9.9-22.3,3.5-32c0.2-0.3,0.3-0.5,0.5-0.8C500.7,303.4,500.6,279.3,498.5,256.1z"/>
			<path d="M309.7,208.6c-0.8-0.3-1.6-0.7-2.3-1c0,0,0,0,0,0C308.1,208,308.9,208.3,309.7,208.6
				C309.7,208.6,309.7,208.6,309.7,208.6z"/>
			<path d="M362.1,361.4C363.5,360.8,364.5,360.1,362.1,361.4L362.1,361.4z"/>
		</g>
	</g>
	<path d="M140.5,159.4c0.1-0.1,0.1-0.2,0.2-0.3c0,0,0,0,0,0.1C140.6,159.3,140.5,159.3,140.5,159.4z"/>
	<path d="M364.1,105.1c-0.1,0.2,0.8-0.4,1.8-1.4c0,0-0.1,0.1-0.1,0.1C365.2,104.3,364.6,104.7,364.1,105.1z"/>
	<path d="M140.5,159.4c-0.1,0.1-0.1,0.2-0.2,0.3C140.3,159.6,140.4,159.5,140.5,159.4z"/>
</g>
</svg>
