<?xml version="1.0" standalone="no"?>
<!DOCTYPE svg PUBLIC "-//W3C//DTD SVG 20010904//EN"
 "http://www.w3.org/TR/2001/REC-SVG-20010904/DTD/svg10.dtd">
<svg version="1.0" xmlns="http://www.w3.org/2000/svg"
 width="700.000000pt" height="700.000000pt" viewBox="0 0 700.000000 700.000000"
 preserveAspectRatio="xMidYMid meet">
<metadata>
Created by potrace 1.11, written by Peter Selinger 2001-2013
</metadata>
<g transform="translate(0.000000,700.000000) scale(0.100000,-0.100000)"
fill="#000000" stroke="none">
<path d="M670 6993 c-335 -58 -585 -294 -655 -620 -12 -59 -14 -440 -12 -2898
l2 -2830 22 -72 c96 -307 317 -504 633 -563 25 -5 1316 -8 2870 -7 l2825 2 70
22 c248 77 430 240 520 468 56 142 53 -15 52 3035 l-2 2825 -23 72 c-72 235
-228 415 -437 505 -80 34 -96 39 -200 58 -49 9 -5614 12 -5665 3z"/>
</g>
</svg>
